<?xml version="1.0" encoding="UTF-8" standalone="no"?><!DOCTYPE svg PUBLIC "-//W3C//DTD SVG 1.1//EN" "http://www.w3.org/Graphics/SVG/1.1/DTD/svg11.dtd"><svg width="100%" height="100%" viewBox="0 0 288 288" version="1.1" xmlns="http://www.w3.org/2000/svg" xmlns:xlink="http://www.w3.org/1999/xlink" xml:space="preserve" xmlns:serif="http://www.serif.com/" style="fill-rule:evenodd;clip-rule:evenodd;stroke-linejoin:round;stroke-miterlimit:2;"><g id="Logo"><path id="D" d="M72,250.738l0,-213.476c0,0 144.788,-20.828 143.997,106.738c-0.791,127.566 -143.997,106.738 -143.997,106.738Z" style="fill:none;"/><clipPath id="_clip1"><path d="M72,250.738l0,-213.476c0,0 144.788,-20.828 143.997,106.738c-0.791,127.566 -143.997,106.738 -143.997,106.738Z"/></clipPath><g clip-path="url(#_clip1)"><g id="Lines"><g id="Black-lines" serif:id="Black lines"><g id="L6"><rect id="L1" x="72" y="218.4" width="144" height="25.2" style="fill:url(#_Linear2);"/></g><g id="L5"><rect id="L11" serif:id="L1" x="72" y="183.6" width="144" height="25.2" style="fill:url(#_Linear3);"/></g><g id="L4"><rect id="L12" serif:id="L1" x="72" y="148.8" width="144" height="25.2" style="fill:url(#_Linear4);"/></g><g id="L3"><rect id="L13" serif:id="L1" x="72" y="114" width="144" height="25.2" style="fill:url(#_Linear5);"/></g><g id="L2"><rect id="L14" serif:id="L1" x="72" y="79.2" width="144" height="25.2" style="fill:url(#_Linear6);"/></g><g id="L15" serif:id="L1"><rect id="L16" serif:id="L1" x="72" y="44.4" width="144" height="25.2" style="fill:url(#_Linear7);"/></g></g><g id="Gaps"><g id="L61" serif:id="L6"><rect x="127.2" y="217.2" width="9.6" height="27.6" style="fill:#f2f2f2;"/></g><g id="L51" serif:id="L5"><rect x="164.4" y="182.4" width="9.6" height="27.6" style="fill:#f2f2f2;"/></g><g id="L52" serif:id="L5"><rect x="100.8" y="182.4" width="9.6" height="27.6" style="fill:#f2f2f2;"/></g><g id="L41" serif:id="L4"><rect x="180" y="147.6" width="9.6" height="27.6" style="fill:#f2f2f2;"/></g><g id="L42" serif:id="L4"><rect x="112.8" y="147.6" width="9.6" height="27.6" style="fill:#f2f2f2;"/></g><g id="L21" serif:id="L2"><rect x="144" y="78" width="9.6" height="27.6" style="fill:#f2f2f2;"/></g><g id="L22" serif:id="L2"><rect x="93.6" y="78" width="9.6" height="27.6" style="fill:#f2f2f2;"/></g><g id="L17" serif:id="L1"><rect x="120" y="43.2" width="9.6" height="27.6" style="fill:#f2f2f2;"/></g></g></g></g><g id="Highlight"><g id="L53" serif:id="L5"><g><rect x="158.4" y="181.2" width="6" height="30" style="fill:#fff;"/></g><g><rect x="110.4" y="183.6" width="48" height="25.2" style="fill:#fff;"/></g></g><g id="L31" serif:id="L3"><g><rect x="216" y="111.6" width="6" height="30" style="fill:#fff;"/></g><g><rect x="72" y="114" width="144" height="25.2" style="fill:#fff;"/></g></g></g></g><defs><linearGradient id="_Linear2" x1="0" y1="0" x2="1" y2="0" gradientUnits="userSpaceOnUse" gradientTransform="matrix(288,0,0,40.0288,72,238.414)"><stop offset="0" style="stop-color:#fff;stop-opacity:1"/><stop offset="1" style="stop-color:#fff;stop-opacity:1"/></linearGradient><linearGradient id="_Linear3" x1="0" y1="0" x2="1" y2="0" gradientUnits="userSpaceOnUse" gradientTransform="matrix(288,0,0,40.0288,72,203.614)"><stop offset="0" style="stop-color:#fff;stop-opacity:1"/><stop offset="1" style="stop-color:#fff;stop-opacity:1"/></linearGradient><linearGradient id="_Linear4" x1="0" y1="0" x2="1" y2="0" gradientUnits="userSpaceOnUse" gradientTransform="matrix(288,0,0,40.0288,72,168.814)"><stop offset="0" style="stop-color:#fff;stop-opacity:1"/><stop offset="1" style="stop-color:#fff;stop-opacity:1"/></linearGradient><linearGradient id="_Linear5" x1="0" y1="0" x2="1" y2="0" gradientUnits="userSpaceOnUse" gradientTransform="matrix(288,0,0,40.0288,72,134.014)"><stop offset="0" style="stop-color:#fff;stop-opacity:1"/><stop offset="1" style="stop-color:#fff;stop-opacity:1"/></linearGradient><linearGradient id="_Linear6" x1="0" y1="0" x2="1" y2="0" gradientUnits="userSpaceOnUse" gradientTransform="matrix(288,0,0,40.0288,72,99.2144)"><stop offset="0" style="stop-color:#fff;stop-opacity:1"/><stop offset="1" style="stop-color:#fff;stop-opacity:1"/></linearGradient><linearGradient id="_Linear7" x1="0" y1="0" x2="1" y2="0" gradientUnits="userSpaceOnUse" gradientTransform="matrix(288,0,0,40.0288,72,64.4144)"><stop offset="0" style="stop-color:#fff;stop-opacity:1"/><stop offset="1" style="stop-color:#fff;stop-opacity:1"/></linearGradient></defs></svg>